<svg width="70" height="71" viewBox="0 0 70 71" fill="none" xmlns="http://www.w3.org/2000/svg">
<path d="M23.3334 14.7917H17.5C15.9529 14.7917 14.4692 15.415 13.3752 16.5246C12.2813 17.6342 11.6667 19.1391 11.6667 20.7083V56.2083C11.6667 57.7775 12.2813 59.2825 13.3752 60.392C14.4692 61.5016 15.9529 62.125 17.5 62.125H46.6667C48.2138 62.125 49.6975 61.5016 50.7915 60.392C51.8854 59.2825 52.5 57.7775 52.5 56.2083V53.25M23.3334 14.7917C23.3334 16.3609 23.9479 17.8658 25.0419 18.9754C26.1359 20.085 27.6196 20.7083 29.1667 20.7083H35C36.5471 20.7083 38.0308 20.085 39.1248 18.9754C40.2188 17.8658 40.8334 16.3609 40.8334 14.7917M23.3334 14.7917C23.3334 13.2225 23.9479 11.7175 25.0419 10.608C26.1359 9.49836 27.6196 8.875 29.1667 8.875H35C36.5471 8.875 38.0308 9.49836 39.1248 10.608C40.2188 11.7175 40.8334 13.2225 40.8334 14.7917M40.8334 14.7917H46.6667C48.2138 14.7917 49.6975 15.415 50.7915 16.5246C51.8854 17.6342 52.5 19.1391 52.5 20.7083V29.5833M58.3334 41.4167H29.1667M29.1667 41.4167L37.9167 32.5417M29.1667 41.4167L37.9167 50.2917" stroke="#3F3F46" stroke-width="2" stroke-linecap="round" stroke-linejoin="round"/>
</svg>
